<?xml version="1.0" encoding="utf-8"?>
<svg version="1.1" xmlns:xlink="http://www.w3.org/1999/xlink" width="19px" height="20px" xmlns="http://www.w3.org/2000/svg">
  <g transform="matrix(1 0 0 1 -24 -17 )">
    <path d="M 18.6065625 1.35296875  C 18.6065625 0.823034273638921  18.1769657263611 0.393437499999999  17.64703125 0.3934375  L 13.6040625 0.3934375  C 13.6040647474999 0.394635415350836  13.6040658712506 0.39583333254378  13.6040658712506 0.397031250002966  C 13.6040658712506 1.45491542940542  12.7464813006531 2.31250000000297  11.6885971212506 2.31250000000297  L 7.31140625 2.3125  C 6.25352207059755 2.3125  5.3959375 1.45491542940245  5.3959375 0.39703125  L 1.35296875 0.39703125  C 0.82582852433314 0.397016460970413  0.397386115716698 0.822249563155272  0.3934375 1.349375  L 0.3934375 15.724375  C 0.393436377303782 15.7255729163385  0.393435815955582 15.7267708331358  0.393435815955582 15.7279687500004  C 0.393435815955582 17.845721882125  2.11021393383097 19.5625000000004  4.22796706595558 19.5625000000004  L 14.77203125 19.5625  C 16.8897843821246 19.5625  18.6065625 17.8457218821246  18.6065625 15.72796875  L 18.6065625 1.35296875  Z M 6.625 8.0625  L 6.625 7.10296875  L 12.375 7.10296875  L 12.375 8.0625  L 6.625 8.0625  Z M 14.29046875 13.8125  L 14.29046875 14.77203125  L 4.70953125 14.77203125  L 4.70953125 13.8125  L 14.29046875 13.8125  Z M 14.29046875 10.45953125  L 14.29046875 11.41546875  L 4.70953125 11.41546875  L 4.70953125 10.45953125  L 14.29046875 10.45953125  Z " fill-rule="nonzero" fill="#57a85e" stroke="none" transform="matrix(1 0 0 1 24 17 )" />
  </g>
</svg>